<?xml version="1.0" encoding="UTF-8" standalone="no"?>
<!-- Created with Inkscape (http://www.inkscape.org/) -->

<svg
   xmlns:dc="http://purl.org/dc/elements/1.1/"
   xmlns:cc="http://creativecommons.org/ns#"
   xmlns:rdf="http://www.w3.org/1999/02/22-rdf-syntax-ns#"
   xmlns:svg="http://www.w3.org/2000/svg"
   xmlns="http://www.w3.org/2000/svg"
   xmlns:sodipodi="http://sodipodi.sourceforge.net/DTD/sodipodi-0.dtd"
   xmlns:inkscape="http://www.inkscape.org/namespaces/inkscape"
   width="744.09448819"
   height="1052.3622047"
   id="svg2"
   version="1.1"
   inkscape:version="0.48.2 r9819"
   sodipodi:docname="New document 1">
  <defs
     id="defs4" />
  <sodipodi:namedview
     id="base"
     pagecolor="#ffffff"
     bordercolor="#666666"
     borderopacity="1.0"
     inkscape:pageopacity="0.0"
     inkscape:pageshadow="2"
     inkscape:zoom="0.7"
     inkscape:cx="75.997163"
     inkscape:cy="498.48175"
     inkscape:document-units="px"
     inkscape:current-layer="layer1"
     showgrid="false"
     inkscape:window-width="1920"
     inkscape:window-height="1028"
     inkscape:window-x="-8"
     inkscape:window-y="-8"
     inkscape:window-maximized="1" />
  <metadata
     id="metadata7">
    <rdf:RDF>
      <cc:Work
         rdf:about="">
        <dc:format>image/svg+xml</dc:format>
        <dc:type
           rdf:resource="http://purl.org/dc/dcmitype/StillImage" />
        <dc:title></dc:title>
      </cc:Work>
    </rdf:RDF>
  </metadata>
  <g
     inkscape:label="Layer 1"
     inkscape:groupmode="layer"
     id="layer1">
    <path
       transform="translate(384,104.57143)"
       d="m 204.28571,189.50504 a 25.714285,25.714285 0 1 1 -51.42857,0 25.714285,25.714285 0 1 1 51.42857,0 z"
       sodipodi:ry="25.714285"
       sodipodi:rx="25.714285"
       sodipodi:cy="189.50504"
       sodipodi:cx="178.57143"
       id="path3853"
       style="color:#000000;fill:#204a87;fill-opacity:1;fill-rule:nonzero;stroke:none;stroke-width:2;marker:none;visibility:visible;display:inline;overflow:visible;enable-background:accumulate"
       sodipodi:type="arc" />
    <path
       transform="translate(325.71429,24.285714)"
       d="m 204.28571,189.50504 a 25.714285,25.714285 0 1 1 -51.42857,0 25.714285,25.714285 0 1 1 51.42857,0 z"
       sodipodi:ry="25.714285"
       sodipodi:rx="25.714285"
       sodipodi:cy="189.50504"
       sodipodi:cx="178.57143"
       id="path3851"
       style="color:#000000;fill:#204a87;fill-opacity:1;fill-rule:nonzero;stroke:none;stroke-width:2;marker:none;visibility:visible;display:inline;overflow:visible;enable-background:accumulate"
       sodipodi:type="arc" />
    <path
       transform="translate(198.57143,24.285714)"
       d="m 204.28571,189.50504 a 25.714285,25.714285 0 1 1 -51.42857,0 25.714285,25.714285 0 1 1 51.42857,0 z"
       sodipodi:ry="25.714285"
       sodipodi:rx="25.714285"
       sodipodi:cy="189.50504"
       sodipodi:cx="178.57143"
       id="path3849"
       style="color:#000000;fill:#204a87;fill-opacity:1;fill-rule:nonzero;stroke:none;stroke-width:2;marker:none;visibility:visible;display:inline;overflow:visible;enable-background:accumulate"
       sodipodi:type="arc" />
    <path
       transform="translate(141.42858,105.71429)"
       d="m 204.28571,189.50504 a 25.714285,25.714285 0 1 1 -51.42857,0 25.714285,25.714285 0 1 1 51.42857,0 z"
       sodipodi:ry="25.714285"
       sodipodi:rx="25.714285"
       sodipodi:cy="189.50504"
       sodipodi:cx="178.57143"
       id="path3847"
       style="color:#000000;fill:#204a87;fill-opacity:1;fill-rule:nonzero;stroke:none;stroke-width:2;marker:none;visibility:visible;display:inline;overflow:visible;enable-background:accumulate"
       sodipodi:type="arc" />
    <rect
       style="color:#000000;fill:#204a87;fill-opacity:1;fill-rule:nonzero;stroke:#729fcf;stroke-width:2;stroke-linecap:round;stroke-linejoin:round;stroke-miterlimit:4;stroke-opacity:1;stroke-dasharray:none;marker:none;visibility:visible;display:inline;overflow:visible;enable-background:accumulate"
       id="rect2993"
       width="678.57141"
       height="380"
       x="35.714287"
       y="552.36218" />
    <text
       sodipodi:linespacing="125%"
       id="text2989"
       y="618.07648"
       x="277.14285"
       style="font-size:40px;font-style:normal;font-weight:normal;line-height:125%;letter-spacing:0px;word-spacing:0px;fill:#000000;fill-opacity:1;stroke:none;font-family:Sans"
       xml:space="preserve"><tspan
         y="618.07648"
         x="277.14285"
         id="tspan2991"
         sodipodi:role="line">ProjectZ</tspan></text>
    <text
       xml:space="preserve"
       style="font-size:93.10960388px;font-style:normal;font-weight:normal;line-height:125%;letter-spacing:0px;word-spacing:0px;fill:#ffffff;fill-opacity:1;stroke:none;font-family:Sans"
       x="65.051506"
       y="890.37909"
       id="text3763"
       sodipodi:linespacing="125%"><tspan
         sodipodi:role="line"
         id="tspan3765"
         x="65.051506"
         y="890.37909">pZ</tspan></text>
    <text
       sodipodi:linespacing="125%"
       id="text3767"
       y="886.09338"
       x="523.62292"
       style="font-size:93.10960388px;font-style:normal;font-weight:normal;line-height:125%;letter-spacing:0px;word-spacing:0px;fill:#ffffff;fill-opacity:1;stroke:none;font-family:Sans"
       xml:space="preserve"><tspan
         y="886.09338"
         x="523.62292"
         id="tspan3769"
         sodipodi:role="line">Pz</tspan></text>
    <text
       sodipodi:linespacing="125%"
       id="text3783"
       y="717.52191"
       x="206.48009"
       style="font-size:93.10960388px;font-style:normal;font-weight:normal;line-height:125%;letter-spacing:0px;word-spacing:0px;fill:#ffffff;fill-opacity:1;stroke:none;font-family:Sans"
       xml:space="preserve"><tspan
         y="717.52191"
         x="206.48009"
         id="tspan3785"
         sodipodi:role="line">projectZ</tspan></text>
    <path
       sodipodi:type="arc"
       style="color:#000000;fill:#204a87;fill-opacity:1;fill-rule:nonzero;stroke:none;stroke-width:2;marker:none;visibility:visible;display:inline;overflow:visible;enable-background:accumulate"
       id="path3807"
       sodipodi:cx="180"
       sodipodi:cy="119.50504"
       sodipodi:rx="27.142857"
       sodipodi:ry="27.142857"
       d="m 207.14286,119.50504 a 27.142857,27.142857 0 1 1 -54.28572,0 27.142857,27.142857 0 1 1 54.28572,0 z"
       transform="translate(-7.1428571,0)" />
    <path
       sodipodi:type="arc"
       style="color:#000000;fill:#204a87;fill-opacity:1;fill-rule:nonzero;stroke:none;stroke-width:2;marker:none;visibility:visible;display:inline;overflow:visible;enable-background:accumulate"
       id="path3809"
       sodipodi:cx="88.571426"
       sodipodi:cy="242.36218"
       sodipodi:rx="35.714287"
       sodipodi:ry="35.714287"
       d="m 124.28571,242.36218 a 35.714287,35.714287 0 1 1 -71.42857,0 35.714287,35.714287 0 1 1 71.42857,0 z"
       transform="translate(25.714286,-5.7142857)" />
    <path
       sodipodi:type="arc"
       style="color:#000000;fill:#204a87;fill-opacity:1;fill-rule:nonzero;stroke:none;stroke-width:2;marker:none;visibility:visible;display:inline;overflow:visible;enable-background:accumulate"
       id="path3811"
       sodipodi:cx="178.57143"
       sodipodi:cy="189.50504"
       sodipodi:rx="25.714285"
       sodipodi:ry="25.714285"
       d="m 204.28571,189.50504 a 25.714285,25.714285 0 1 1 -51.42857,0 25.714285,25.714285 0 1 1 51.42857,0 z"
       transform="translate(48.571428,4.2857143)" />
    <rect
       style="color:#000000;fill:#204a87;fill-opacity:1;fill-rule:nonzero;stroke:none;stroke-width:2;marker:none;visibility:visible;display:inline;overflow:visible;enable-background:accumulate"
       id="rect3813"
       width="24.285715"
       height="171.42857"
       x="195.26114"
       y="9.8196478"
       transform="matrix(0.90346031,0.42867175,-0.42867175,0.90346031,0,0)" />
    <rect
       transform="matrix(0.52466769,0.85130712,-0.92596089,0.37761943,0,0)"
       y="-72.376144"
       x="261.87302"
       height="97.156586"
       width="13.055749"
       id="rect3815"
       style="color:#000000;fill:#204a87;fill-opacity:1;fill-rule:nonzero;stroke:none;stroke-width:2;marker:none;visibility:visible;display:inline;overflow:visible;enable-background:accumulate" />
    <rect
       transform="matrix(0.86563956,0.50066771,-0.36273163,0.93189364,0,0)"
       y="-74.439041"
       x="540.30902"
       height="166.19806"
       width="20.793432"
       id="rect3823"
       style="color:#000000;fill:#204a87;fill-opacity:1;fill-rule:nonzero;stroke:none;stroke-width:2;marker:none;visibility:visible;display:inline;overflow:visible;enable-background:accumulate" />
    <rect
       style="color:#000000;fill:#204a87;fill-opacity:1;fill-rule:nonzero;stroke:none;stroke-width:2;marker:none;visibility:visible;display:inline;overflow:visible;enable-background:accumulate"
       id="rect3825"
       width="13.055749"
       height="97.156586"
       x="486.34827"
       y="-298.48499"
       transform="matrix(0.52466769,0.85130712,-0.92596089,0.37761943,0,0)" />
    <path
       transform="translate(320,105.71429)"
       d="m 207.14286,119.50504 a 27.142857,27.142857 0 1 1 -54.28572,0 27.142857,27.142857 0 1 1 54.28572,0 z"
       sodipodi:ry="27.142857"
       sodipodi:rx="27.142857"
       sodipodi:cy="119.50504"
       sodipodi:cx="180"
       id="path3817"
       style="color:#000000;fill:#204a87;fill-opacity:1;fill-rule:nonzero;stroke:#ffffff;stroke-width:5;marker:none;visibility:visible;display:inline;overflow:visible;enable-background:accumulate;stroke-opacity:1;stroke-miterlimit:4;stroke-dasharray:none"
       sodipodi:type="arc" />
    <path
       transform="translate(375.71429,110)"
       d="m 204.28571,189.50504 a 25.714285,25.714285 0 1 1 -51.42857,0 25.714285,25.714285 0 1 1 51.42857,0 z"
       sodipodi:ry="25.714285"
       sodipodi:rx="25.714285"
       sodipodi:cy="189.50504"
       sodipodi:cx="178.57143"
       id="path3821"
       style="color:#000000;fill:#204a87;fill-opacity:1;fill-rule:nonzero;stroke:#ffffff;stroke-width:5;marker:none;visibility:visible;display:inline;overflow:visible;enable-background:accumulate;stroke-opacity:1;stroke-miterlimit:4;stroke-dasharray:none"
       sodipodi:type="arc" />
    <rect
       transform="matrix(0.52466769,0.85130712,-0.92596089,0.37761943,0,0)"
       y="-298.48499"
       x="486.34827"
       height="97.156586"
       width="13.055749"
       id="rect3827"
       style="color:#000000;fill:#204a87;fill-opacity:1;fill-rule:nonzero;stroke:none;stroke-width:2;marker:none;visibility:visible;display:inline;overflow:visible;enable-background:accumulate" />
    <path
       sodipodi:type="arc"
       style="color:#000000;fill:#204a87;fill-opacity:1;fill-rule:nonzero;stroke:#ffffff;stroke-width:5;marker:none;visibility:visible;display:inline;overflow:visible;enable-background:accumulate;stroke-opacity:1;stroke-miterlimit:4;stroke-dasharray:none"
       id="path3829"
       sodipodi:cx="180"
       sodipodi:cy="119.50504"
       sodipodi:rx="27.142857"
       sodipodi:ry="27.142857"
       d="m 207.14286,119.50504 a 27.142857,27.142857 0 1 1 -54.28572,0 27.142857,27.142857 0 1 1 54.28572,0 z"
       transform="translate(320,105.71429)" />
    <path
       sodipodi:type="arc"
       style="color:#000000;fill:#204a87;fill-opacity:1;fill-rule:nonzero;stroke:#ffffff;stroke-width:5;marker:none;visibility:visible;display:inline;overflow:visible;enable-background:accumulate;stroke-opacity:1;stroke-miterlimit:4;stroke-dasharray:none"
       id="path3831"
       sodipodi:cx="178.57143"
       sodipodi:cy="189.50504"
       sodipodi:rx="25.714285"
       sodipodi:ry="25.714285"
       d="m 204.28571,189.50504 a 25.714285,25.714285 0 1 1 -51.42857,0 25.714285,25.714285 0 1 1 51.42857,0 z"
       transform="translate(375.71429,110)" />
    <rect
       style="color:#000000;fill:#204a87;fill-opacity:1;fill-rule:nonzero;stroke:none;stroke-width:2;marker:none;visibility:visible;display:inline;overflow:visible;enable-background:accumulate"
       id="rect3833"
       width="20.50976"
       height="165.80219"
       x="-294.32861"
       y="372.2095"
       transform="matrix(-0.86159728,0.50759248,0.35696264,0.93411866,0,0)" />
    <rect
       transform="matrix(-0.52466769,0.85130712,0.92596089,0.37761943,0,0)"
       y="464.75342"
       x="147.79391"
       height="97.156586"
       width="13.055749"
       id="rect3835"
       style="color:#000000;fill:#204a87;fill-opacity:1;fill-rule:nonzero;stroke:none;stroke-width:2;marker:none;visibility:visible;display:inline;overflow:visible;enable-background:accumulate" />
    <path
       sodipodi:type="arc"
       style="color:#000000;fill:#204a87;fill-opacity:1;fill-rule:nonzero;stroke:#ffffff;stroke-width:5;stroke-miterlimit:4;stroke-opacity:1;stroke-dasharray:none;marker:none;visibility:visible;display:inline;overflow:visible;enable-background:accumulate"
       id="path3837"
       sodipodi:cx="180"
       sodipodi:cy="119.50504"
       sodipodi:rx="27.142857"
       sodipodi:ry="27.142857"
       d="m 207.14286,119.50504 a 27.142857,27.142857 0 1 1 -54.28572,0 27.142857,27.142857 0 1 1 54.28572,0 z"
       transform="matrix(-1,0,0,1,564.35753,105.71429)" />
    <path
       sodipodi:type="arc"
       style="color:#000000;fill:#204a87;fill-opacity:1;fill-rule:nonzero;stroke:#ffffff;stroke-width:5;stroke-miterlimit:4;stroke-opacity:1;stroke-dasharray:none;marker:none;visibility:visible;display:inline;overflow:visible;enable-background:accumulate"
       id="path3839"
       sodipodi:cx="178.57143"
       sodipodi:cy="189.50504"
       sodipodi:rx="25.714285"
       sodipodi:ry="25.714285"
       d="m 204.28571,189.50504 a 25.714285,25.714285 0 1 1 -51.42857,0 25.714285,25.714285 0 1 1 51.42857,0 z"
       transform="matrix(-1,0,0,1,508.64324,110)" />
    <rect
       style="color:#000000;fill:#204a87;fill-opacity:1;fill-rule:nonzero;stroke:none;stroke-width:2;marker:none;visibility:visible;display:inline;overflow:visible;enable-background:accumulate"
       id="rect3841"
       width="13.055749"
       height="97.156586"
       x="147.79391"
       y="464.75342"
       transform="matrix(-0.52466769,0.85130712,0.92596089,0.37761943,0,0)" />
    <path
       transform="matrix(-1,0,0,1,564.35753,105.71429)"
       d="m 207.14286,119.50504 a 27.142857,27.142857 0 1 1 -54.28572,0 27.142857,27.142857 0 1 1 54.28572,0 z"
       sodipodi:ry="27.142857"
       sodipodi:rx="27.142857"
       sodipodi:cy="119.50504"
       sodipodi:cx="180"
       id="path3843"
       style="color:#000000;fill:#204a87;fill-opacity:1;fill-rule:nonzero;stroke:#ffffff;stroke-width:5;stroke-miterlimit:4;stroke-opacity:1;stroke-dasharray:none;marker:none;visibility:visible;display:inline;overflow:visible;enable-background:accumulate"
       sodipodi:type="arc" />
    <path
       transform="matrix(-1,0,0,1,508.64324,110)"
       d="m 204.28571,189.50504 a 25.714285,25.714285 0 1 1 -51.42857,0 25.714285,25.714285 0 1 1 51.42857,0 z"
       sodipodi:ry="25.714285"
       sodipodi:rx="25.714285"
       sodipodi:cy="189.50504"
       sodipodi:cx="178.57143"
       id="path3845"
       style="color:#000000;fill:#204a87;fill-opacity:1;fill-rule:nonzero;stroke:#ffffff;stroke-width:5;stroke-miterlimit:4;stroke-opacity:1;stroke-dasharray:none;marker:none;visibility:visible;display:inline;overflow:visible;enable-background:accumulate"
       sodipodi:type="arc" />
    <path
       transform="translate(352.85714,100)"
       d="m 124.28571,242.36218 a 35.714287,35.714287 0 1 1 -71.42857,0 35.714287,35.714287 0 1 1 71.42857,0 z"
       sodipodi:ry="35.714287"
       sodipodi:rx="35.714287"
       sodipodi:cy="242.36218"
       sodipodi:cx="88.571426"
       id="path3819"
       style="color:#000000;fill:#204a87;fill-opacity:1;fill-rule:nonzero;stroke:#ffffff;stroke-width:5;marker:none;visibility:visible;display:inline;overflow:visible;enable-background:accumulate;stroke-opacity:1;stroke-miterlimit:4;stroke-dasharray:none"
       sodipodi:type="arc" />
  </g>
</svg>
